<svg width="258" height="101" viewBox="0 0 258 101" fill="none" xmlns="http://www.w3.org/2000/svg">
<g clip-path="url(#clip0_8_35)">
<g filter="url(#filter0_d_8_35)">
<path d="M52 25H26C13.8497 25 4 34.8497 4 47V73C4 85.1503 13.8497 95 26 95H52C64.1503 95 74 85.1503 74 73V47C74 34.8497 64.1503 25 52 25Z" fill="url(#paint0_linear_8_35)"/>
</g>
<path d="M17 53.7931C17 46.6364 23.4843 40 29.625 40C33.8862 40 37.0482 42.9775 39 47.2013C40.9517 42.9778 44.1136 40 48.375 40C54.5163 40 61 46.6375 61 53.7931C61 69.1111 39 80 39 80C39 80 17 69.77 17 53.7931Z" fill="url(#paint1_radial_8_35)"/>
<g filter="url(#filter1_d_8_35)">
<path d="M37.3332 53V66H41.6665V53H37.3332Z" fill="#ECEEF1"/>
<path d="M37.3332 53V66H41.6665V53H37.3332Z" fill="#ECEEF1"/>
<path d="M37.3332 53V66H41.6665V53H37.3332Z" fill="#ECEEF1"/>
<path d="M46 57.3333H33V61.6666H46V57.3333Z" fill="#ECEEF1"/>
<path d="M46 57.3333H33V61.6666H46V57.3333Z" fill="#ECEEF1"/>
<path d="M46 57.3333H33V61.6666H46V57.3333Z" fill="#ECEEF1"/>
</g>
</g>
<path d="M138.056 100L161.48 64L138.248 28.48H153.224L172.232 57.568H165.32L184.232 28.48H199.208L176.072 64L199.4 100H184.424L165.32 70.528H172.232L153.032 100H138.056Z" fill="#38B59B"/>
<g filter="url(#filter2_d_8_35)">
<path d="M81 74.224V50.384H85.8L94.728 62.224H92.488L101.16 50.384H105.96V74.224H101V55.856L102.984 56.304L93.8 68.144H93.16L84.296 56.304L85.96 55.856V74.224H81ZM119.532 74.608C117.676 74.608 116.065 74.2027 114.7 73.392C113.334 72.56 112.278 71.4507 111.532 70.064C110.785 68.6773 110.412 67.1413 110.412 65.456C110.412 63.7067 110.796 62.1493 111.564 60.784C112.353 59.4187 113.409 58.3413 114.732 57.552C116.054 56.7627 117.548 56.368 119.212 56.368C120.598 56.368 121.825 56.592 122.892 57.04C123.958 57.4667 124.854 58.0747 125.58 58.864C126.326 59.6533 126.892 60.5707 127.276 61.616C127.66 62.64 127.852 63.76 127.852 64.976C127.852 65.3173 127.83 65.6587 127.788 66C127.766 66.32 127.713 66.5973 127.628 66.832H114.54V63.312H124.908L122.636 64.976C122.849 64.0587 122.838 63.248 122.604 62.544C122.369 61.8187 121.953 61.2533 121.356 60.848C120.78 60.4213 120.065 60.208 119.212 60.208C118.38 60.208 117.665 60.4107 117.068 60.816C116.47 61.2213 116.022 61.8187 115.724 62.608C115.425 63.3973 115.308 64.3573 115.372 65.488C115.286 66.4693 115.404 67.3333 115.724 68.08C116.044 68.8267 116.534 69.4133 117.196 69.84C117.857 70.2453 118.657 70.448 119.596 70.448C120.449 70.448 121.174 70.2773 121.772 69.936C122.39 69.5947 122.87 69.1253 123.212 68.528L127.052 70.352C126.71 71.2053 126.166 71.952 125.42 72.592C124.694 73.232 123.83 73.7333 122.828 74.096C121.825 74.4373 120.726 74.608 119.532 74.608ZM140.182 74.608C138.475 74.608 136.95 74.2027 135.606 73.392C134.262 72.5813 133.195 71.4827 132.406 70.096C131.638 68.7093 131.254 67.1733 131.254 65.488C131.254 63.7813 131.649 62.2453 132.438 60.88C133.227 59.4933 134.294 58.3947 135.638 57.584C136.982 56.7733 138.486 56.368 140.15 56.368C141.43 56.368 142.561 56.6133 143.542 57.104C144.545 57.5733 145.334 58.2453 145.91 59.12L145.174 60.08V50H149.974V74.224H145.494V71.024L145.942 72.016C145.345 72.8693 144.534 73.52 143.51 73.968C142.486 74.3947 141.377 74.608 140.182 74.608ZM140.758 70.288C141.633 70.288 142.401 70.0853 143.062 69.68C143.723 69.2747 144.235 68.7093 144.598 67.984C144.982 67.2587 145.174 66.4267 145.174 65.488C145.174 64.5493 144.982 63.7173 144.598 62.992C144.235 62.2667 143.723 61.7013 143.062 61.296C142.401 60.8907 141.633 60.688 140.758 60.688C139.883 60.688 139.094 60.9013 138.39 61.328C137.707 61.7333 137.174 62.2987 136.79 63.024C136.406 63.728 136.214 64.5493 136.214 65.488C136.214 66.4267 136.406 67.2587 136.79 67.984C137.174 68.7093 137.707 69.2747 138.39 69.68C139.094 70.0853 139.883 70.288 140.758 70.288ZM154.769 74.224V56.752H159.569V74.224H154.769ZM154.769 55.184V50.384H159.569V55.184H154.769ZM164.714 74.224V50.384H173.866C175.508 50.384 176.959 50.672 178.218 51.248C179.498 51.824 180.5 52.6773 181.226 53.808C181.951 54.9387 182.314 56.336 182.314 58C182.314 59.6213 181.94 60.9973 181.194 62.128C180.468 63.2587 179.466 64.1227 178.186 64.72C176.927 65.296 175.487 65.584 173.866 65.584H169.674V74.224H164.714ZM169.674 61.264H173.898C174.602 61.264 175.21 61.1253 175.722 60.848C176.234 60.5707 176.628 60.1867 176.906 59.696C177.204 59.2053 177.354 58.64 177.354 58C177.354 57.3387 177.204 56.7627 176.906 56.272C176.628 55.7813 176.234 55.3973 175.722 55.12C175.21 54.8427 174.602 54.704 173.898 54.704H169.674V61.264ZM192.695 74.608C191.287 74.608 190.082 74.3093 189.079 73.712C188.098 73.0933 187.351 72.24 186.839 71.152C186.327 70.064 186.071 68.7947 186.071 67.344V56.752H190.871V66.96C190.871 67.6213 190.999 68.208 191.255 68.72C191.532 69.2107 191.916 69.5947 192.407 69.872C192.898 70.1493 193.452 70.288 194.071 70.288C194.711 70.288 195.266 70.1493 195.735 69.872C196.226 69.5947 196.599 69.2107 196.855 68.72C197.132 68.208 197.271 67.6213 197.271 66.96V56.752H202.071V74.224H197.591V70.768L197.847 71.536C197.442 72.5813 196.78 73.36 195.863 73.872C194.967 74.3627 193.911 74.608 192.695 74.608ZM206.859 74.224V50H211.659V74.224H206.859ZM223.3 74.608C221.38 74.608 219.705 74.16 218.276 73.264C216.868 72.3467 215.908 71.12 215.396 69.584L218.916 67.92C219.364 68.8587 219.972 69.5947 220.74 70.128C221.508 70.6613 222.361 70.928 223.3 70.928C223.982 70.928 224.505 70.7893 224.868 70.512C225.23 70.2347 225.412 69.8507 225.412 69.36C225.412 69.104 225.348 68.8907 225.22 68.72C225.092 68.528 224.9 68.3573 224.644 68.208C224.388 68.0587 224.068 67.9307 223.684 67.824L220.708 66.992C219.278 66.5867 218.18 65.936 217.412 65.04C216.644 64.1227 216.26 63.0453 216.26 61.808C216.26 60.72 216.537 59.7707 217.092 58.96C217.646 58.1493 218.425 57.52 219.428 57.072C220.43 56.6027 221.582 56.368 222.884 56.368C224.59 56.368 226.084 56.7733 227.364 57.584C228.665 58.3733 229.582 59.4933 230.116 60.944L226.564 62.608C226.308 61.8827 225.838 61.3067 225.156 60.88C224.494 60.432 223.737 60.208 222.884 60.208C222.265 60.208 221.774 60.336 221.412 60.592C221.07 60.848 220.9 61.2 220.9 61.648C220.9 61.8827 220.964 62.096 221.092 62.288C221.22 62.48 221.422 62.6507 221.7 62.8C221.998 62.9493 222.361 63.088 222.788 63.216L225.572 64.048C227.022 64.4747 228.132 65.1253 228.9 66C229.668 66.8533 230.052 67.9093 230.052 69.168C230.052 70.256 229.764 71.2053 229.188 72.016C228.633 72.8267 227.854 73.4667 226.852 73.936C225.849 74.384 224.665 74.608 223.3 74.608ZM242.617 74.608C240.761 74.608 239.15 74.2027 237.785 73.392C236.419 72.56 235.363 71.4507 234.617 70.064C233.87 68.6773 233.497 67.1413 233.497 65.456C233.497 63.7067 233.881 62.1493 234.649 60.784C235.438 59.4187 236.494 58.3413 237.817 57.552C239.139 56.7627 240.633 56.368 242.297 56.368C243.683 56.368 244.91 56.592 245.977 57.04C247.043 57.4667 247.939 58.0747 248.665 58.864C249.411 59.6533 249.977 60.5707 250.361 61.616C250.745 62.64 250.937 63.76 250.937 64.976C250.937 65.3173 250.915 65.6587 250.873 66C250.851 66.32 250.798 66.5973 250.713 66.832H237.625V63.312H247.993L245.721 64.976C245.934 64.0587 245.923 63.248 245.689 62.544C245.454 61.8187 245.038 61.2533 244.441 60.848C243.865 60.4213 243.15 60.208 242.297 60.208C241.465 60.208 240.75 60.4107 240.153 60.816C239.555 61.2213 239.107 61.8187 238.809 62.608C238.51 63.3973 238.393 64.3573 238.457 65.488C238.371 66.4693 238.489 67.3333 238.809 68.08C239.129 68.8267 239.619 69.4133 240.281 69.84C240.942 70.2453 241.742 70.448 242.681 70.448C243.534 70.448 244.259 70.2773 244.857 69.936C245.475 69.5947 245.955 69.1253 246.297 68.528L250.137 70.352C249.795 71.2053 249.251 71.952 248.505 72.592C247.779 73.232 246.915 73.7333 245.913 74.096C244.91 74.4373 243.811 74.608 242.617 74.608Z" fill="white"/>
</g>
<defs>
<filter id="filter0_d_8_35" x="-0.9" y="22.1" width="79.8" height="79.8" filterUnits="userSpaceOnUse" color-interpolation-filters="sRGB">
<feFlood flood-opacity="0" result="BackgroundImageFix"/>
<feColorMatrix in="SourceAlpha" type="matrix" values="0 0 0 0 0 0 0 0 0 0 0 0 0 0 0 0 0 0 127 0" result="hardAlpha"/>
<feOffset dy="2"/>
<feGaussianBlur stdDeviation="2.45"/>
<feComposite in2="hardAlpha" operator="out"/>
<feColorMatrix type="matrix" values="0 0 0 0 0 0 0 0 0 0 0 0 0 0 0 0 0 0 0.25 0"/>
<feBlend mode="normal" in2="BackgroundImageFix" result="effect1_dropShadow_8_35"/>
<feBlend mode="normal" in="SourceGraphic" in2="effect1_dropShadow_8_35" result="shape"/>
</filter>
<filter id="filter1_d_8_35" x="29" y="53" width="21" height="21" filterUnits="userSpaceOnUse" color-interpolation-filters="sRGB">
<feFlood flood-opacity="0" result="BackgroundImageFix"/>
<feColorMatrix in="SourceAlpha" type="matrix" values="0 0 0 0 0 0 0 0 0 0 0 0 0 0 0 0 0 0 127 0" result="hardAlpha"/>
<feOffset dy="4"/>
<feGaussianBlur stdDeviation="2"/>
<feComposite in2="hardAlpha" operator="out"/>
<feColorMatrix type="matrix" values="0 0 0 0 0 0 0 0 0 0 0 0 0 0 0 0 0 0 0.25 0"/>
<feBlend mode="normal" in2="BackgroundImageFix" result="effect1_dropShadow_8_35"/>
<feBlend mode="normal" in="SourceGraphic" in2="effect1_dropShadow_8_35" result="shape"/>
</filter>
<filter id="filter2_d_8_35" x="74.7" y="46.7" width="182.537" height="37.2079" filterUnits="userSpaceOnUse" color-interpolation-filters="sRGB">
<feFlood flood-opacity="0" result="BackgroundImageFix"/>
<feColorMatrix in="SourceAlpha" type="matrix" values="0 0 0 0 0 0 0 0 0 0 0 0 0 0 0 0 0 0 127 0" result="hardAlpha"/>
<feOffset dy="3"/>
<feGaussianBlur stdDeviation="3.15"/>
<feComposite in2="hardAlpha" operator="out"/>
<feColorMatrix type="matrix" values="0 0 0 0 0 0 0 0 0 0 0 0 0 0 0 0 0 0 0.25 0"/>
<feBlend mode="normal" in2="BackgroundImageFix" result="effect1_dropShadow_8_35"/>
<feBlend mode="normal" in="SourceGraphic" in2="effect1_dropShadow_8_35" result="shape"/>
</filter>
<linearGradient id="paint0_linear_8_35" x1="39" y1="25" x2="39" y2="95" gradientUnits="userSpaceOnUse">
<stop stop-color="#F7F8F9"/>
<stop offset="1" stop-color="#D8DCE3"/>
</linearGradient>
<radialGradient id="paint1_radial_8_35" cx="0" cy="0" r="1" gradientUnits="userSpaceOnUse" gradientTransform="translate(5.5 69) rotate(-68.438) scale(66.6652 67.0044)">
<stop offset="0.361" stop-color="#1D95CF"/>
<stop offset="1" stop-color="#46C582"/>
</radialGradient>
<clipPath id="clip0_8_35">
<rect width="78" height="78" fill="white" transform="translate(0 23)"/>
</clipPath>
</defs>
</svg>
